<?xml version="1.0" encoding="utf-8"?>
<!-- Generator: Adobe Illustrator 27.5.0, SVG Export Plug-In . SVG Version: 6.00 Build 0)  -->
<svg version="1.1" xmlns="http://www.w3.org/2000/svg" xmlns:xlink="http://www.w3.org/1999/xlink" x="0px" y="0px"
	 viewBox="0 0 500 500" style="enable-background:new 0 0 500 500;" xml:space="preserve">
<g id="BACKGROUND">
	<rect x="250" y="347.055" style="fill:#4B4B4B;" width="250" height="152.945"/>
	<rect y="347.055" style="fill:#273842;" width="250" height="152.945"/>
	<rect x="0.027" y="-0.501" style="fill:#FFFFFF;" width="499.972" height="348.444"/>
</g>
<g id="OBJECTS">
	<g>
		<g>
			<defs>
				<filter id="Adobe_OpacityMaskFilter" filterUnits="userSpaceOnUse" x="42.581" y="122.798" width="387.35" height="100.047">
					<feFlood  style="flood-color:white;flood-opacity:1" result="back"/>
					<feBlend  in="SourceGraphic" in2="back" mode="normal"/>
				</filter>
			</defs>
			<mask maskUnits="userSpaceOnUse" x="42.581" y="122.798" width="387.35" height="100.047" id="SVGID_1_">
				<g style="filter:url(#Adobe_OpacityMaskFilter);">
					<path d="M220.226,189.886c0,0,121.462,12.478,175.622-50.443c-24.425,33.983-81.859,64.957-176.02,60.709"/>
					<path d="M327.517,176.579c0,0,0.531,3.153,4.281,2.257c-2.589,1.693-6.637,3.153-6.637,3.153L327.517,176.579z"/>
					<path d="M281.588,185.439c0,0-0.199,3.617,4.215,3.02c4.414-0.597-3.385,3.252-3.385,3.252S279.032,190.019,281.588,185.439z"
						/>
				</g>
			</mask>
			<g style="mask:url(#SVGID_1_);">
				<text transform="matrix(1 0 0 1 42.581 188.7966)"><tspan x="0" y="0" style="fill:#273842; font-family:'BebasNeue-Bold'; font-size:56.8988px;">travel</tspan><tspan x="134.165" y="14.336" style="fill:#FF9412; font-family:'BebasNeue-Bold'; font-size:78.8505px;">WORLD</tspan></text>
			</g>
			<circle style="fill:#173540;" cx="101.065" cy="196.435" r="5.31"/>
			<polygon style="fill:#173540;" points="217.372,192.796 215.679,191.103 212.04,194.742 208.401,191.103 206.708,192.796 
				210.348,196.435 206.708,200.074 208.401,201.767 212.04,198.128 215.679,201.767 217.372,200.074 213.733,196.435 			"/>
			<g>
				<g>
					
						<line style="fill:none;stroke:#173540;stroke-width:1.1947;stroke-miterlimit:10;" x1="109.738" y1="196.435" x2="112.725" y2="196.435"/>
					
						<line style="fill:none;stroke:#173540;stroke-width:1.1947;stroke-miterlimit:10;stroke-dasharray:5.8673,5.8673;" x1="118.592" y1="196.435" x2="197.801" y2="196.435"/>
					
						<line style="fill:none;stroke:#173540;stroke-width:1.1947;stroke-miterlimit:10;" x1="200.735" y1="196.435" x2="203.722" y2="196.435"/>
				</g>
			</g>
			<path style="fill:#FF9412;" d="M269.497,200.794c11.128-1.15,14.348-4.668,24.137-4.734c-4.115,1.261-5.575,3.097-5.575,3.097
				C283.828,203.223,273.49,202.53,269.497,200.794z"/>
			<path style="fill:#FF9412;" d="M296.252,195.434c0,0,23.268-6.034,29.463-8.866c-2.92,1.504-3.872,4.27-3.872,4.27
				s-2.539-1.858-12.843,1.493c-3.578,1.164-4.43,3.767-4.43,3.767S304.69,194.088,296.252,195.434z"/>
			<path style="fill:#FF9412;" d="M327.65,186.535c0,0,10.238-3.783,14.237-5.94c-2.688,1.427-5.343,3.451-5.675,5.94
				C336.212,186.535,336.113,183.78,327.65,186.535z"/>
			<path style="fill:#FF9412;" d="M332.57,178.637c3.13-0.963,7.061-2.305,9.715-3.685c-4.58,1.958-5.907-0.332-6.073-1.128
				c-1.631,1.129-3.161,2.22-4.466,3.164C330.89,177.608,331.559,178.948,332.57,178.637z"/>
			<path style="fill:#FF9412;" d="M372.252,162.939l12.644-10.288c0,0-4.049,3.684-4.148,5.542
				C380.283,158.724,372.252,162.939,372.252,162.939z"/>
			<path style="fill:#FF9412;" d="M372.286,159.919c0,0,9.226-6.239,11.715-8.562c-3.086,2.29-4.215,2.057-5.011,1.726
				C374.21,157.928,372.286,159.919,372.286,159.919z"/>
			<path style="fill:#FF9412;" d="M354.299,174.621c0,0,8.697-5.067,11.13-6.748c-0.885,0.664-2.347,2.545-2.435,3.784
				L354.299,174.621z"/>
			<path style="fill:#FF9412;" d="M295.869,187.077c0,0,9.469-1.372,12.876-2.412c-2.721,0.376-4.049-0.288-4.182-1.261
				C301.621,185.484,295.869,187.077,295.869,187.077z"/>
			<path style="fill:#FF9412;" d="M285.85,188.469c2.476-0.294,5.397-0.654,6.855-0.884c-1.084,0-2.168-0.487-2.412-1.504
				c-1.351,0.828-3.14,1.475-4.74,1.944C285.653,188.173,285.752,188.32,285.85,188.469z"/>
			<path style="fill:#FF9412;" d="M241.421,190.904c0,0,20.553,0.398,36.615-1.681c0,0-4.757,0.177-5.465-1.814
				c-3.319,1.195-6.106,2.743-12.611,2.743c0,0-3.805,0.575-4.027-3.053C250.492,189.223,241.421,190.904,241.421,190.904z"/>
			<path style="fill:#FF9412;" d="M312.783,183.913c0,0,8.396-1.858,11.549-2.987c-1.306,0.402-3.23,0.402-3.817-0.685
				C318.988,181.436,312.783,183.913,312.783,183.913z"/>
			<path style="fill:#FF9412;" d="M236.598,200.55c0,0,5.332-0.21,5.913,1.001c-0.066-0.68,6.272-0.979,6.272-0.979
				s5.459-0.581,5.608,0.481c0.166-0.597,9.906-1.543,9.906-1.543L236.598,200.55z"/>
			<g>
				<g>
					<path style="fill:#273842;" d="M401.367,154.58c-0.625-3.95-1.217-7.688-1.834-11.588c-0.381,0.313-0.689,0.556-0.985,0.812
						c-2.254,1.945-4.736,3.509-7.536,4.555c-0.949,0.355-1.805,0.341-2.699-0.225c-1.72-1.088-3.487-2.102-5.243-3.152
						c0.648-0.852,1.376-1.136,2.376-1.016c1.379,0.165,2.778,0.197,4.169,0.206c0.422,0.003,0.94-0.148,1.255-0.416
						c4.865-4.123,9.708-8.272,14.547-12.425c1.331-1.143,2.87-1.706,4.606-1.667c1.51,0.034,2.145,0.993,1.499,2.361
						c-0.334,0.708-0.869,1.369-1.45,1.902c-1.415,1.298-2.903,2.52-4.379,3.75c-0.408,0.34-0.617,0.693-0.66,1.255
						c-0.318,4.107-0.706,8.208-1.015,12.316c-0.069,0.913-0.372,1.584-1.129,2.094C402.413,153.664,401.991,154.068,401.367,154.58
						z"/>
					<path style="fill:#273842;" d="M387.996,137.338c1.128-0.975,1.921-2.234,3.736-1.956c1.831,0.281,3.704,0.291,5.559,0.422
						c0.155,0.011,0.308,0.042,0.617,0.085c-1.382,1.163-2.644,2.233-3.921,3.285c-0.122,0.101-0.363,0.16-0.51,0.114
						c-1.699-0.53-3.391-1.082-5.081-1.639C388.277,137.61,388.187,137.49,387.996,137.338z"/>
				</g>
			</g>
		</g>
		<text transform="matrix(1 0 0 1 219.0273 218.4993)" style="fill:#747E99; font-family:'Poppins-Regular'; font-size:12.5348px;">it&apos;s time to travel the world</text>
	</g>
	<g>
		<g>
			<defs>
				
					<filter id="Adobe_OpacityMaskFilter_00000016765777903922378970000014141315308021581720_" filterUnits="userSpaceOnUse" x="27.294" y="399.426" width="183.325" height="47.352">
					<feFlood  style="flood-color:white;flood-opacity:1" result="back"/>
					<feBlend  in="SourceGraphic" in2="back" mode="normal"/>
				</filter>
			</defs>
			
				<mask maskUnits="userSpaceOnUse" x="27.294" y="399.426" width="183.325" height="47.352" id="SVGID_00000036961099006665128790000003718031386282624140_">
				<g style="filter:url(#Adobe_OpacityMaskFilter_00000016765777903922378970000014141315308021581720_);">
					<path d="M111.37,431.178c0,0,57.485,5.906,83.118-23.874c-11.56,16.083-38.742,30.743-83.307,28.732"/>
					<path d="M162.149,424.879c0,0,0.251,1.492,2.026,1.068c-1.225,0.801-3.141,1.492-3.141,1.492L162.149,424.879z"/>
					<path d="M140.411,429.073c0,0-0.094,1.712,1.995,1.429c2.089-0.283-1.602,1.539-1.602,1.539S139.202,431.241,140.411,429.073z"
						/>
				</g>
			</mask>
			<g style="mask:url(#SVGID_00000036961099006665128790000003718031386282624140_);">
				<text transform="matrix(1 0 0 1 27.2942 430.6624)"><tspan x="0" y="0" style="fill:#FF9412; font-family:'BebasNeue-Bold'; font-size:26.9291px;">travel</tspan><tspan x="63.498" y="6.785" style="fill:#FF9412; font-family:'BebasNeue-Bold'; font-size:37.3185px;">WORLD</tspan></text>
			</g>
			<path style="fill:#FF9412;" d="M57.487,434.277c0,1.388-1.125,2.513-2.513,2.513s-2.513-1.125-2.513-2.513
				s1.125-2.513,2.513-2.513S57.487,432.889,57.487,434.277z"/>
			<polygon style="fill:#FF9412;" points="110.019,432.555 109.218,431.754 107.496,433.476 105.774,431.754 104.972,432.555 
				106.695,434.277 104.972,436 105.774,436.801 107.496,435.078 109.218,436.801 110.019,436 108.297,434.277 			"/>
			<g>
				<g>
					
						<line style="fill:none;stroke:#FF9412;stroke-width:0.5654;stroke-miterlimit:10;" x1="59.078" y1="434.277" x2="60.492" y2="434.277"/>
					
						<line style="fill:none;stroke:#FF9412;stroke-width:0.5654;stroke-miterlimit:10;stroke-dasharray:2.7769,2.7769;" x1="63.269" y1="434.277" x2="100.757" y2="434.277"/>
					
						<line style="fill:none;stroke:#FF9412;stroke-width:0.5654;stroke-miterlimit:10;" x1="102.145" y1="434.277" x2="103.559" y2="434.277"/>
				</g>
			</g>
			<path style="fill:#FF9412;" d="M134.689,436.34c5.267-0.544,6.79-2.209,11.424-2.241c-1.948,0.597-2.639,1.466-2.639,1.466
				C141.472,437.49,136.579,437.162,134.689,436.34z"/>
			<path style="fill:#FF9412;" d="M147.352,433.803c0,0,11.012-2.856,13.944-4.196c-1.382,0.712-1.833,2.021-1.833,2.021
				s-1.201-0.879-6.078,0.707c-1.693,0.551-2.097,1.783-2.097,1.783S151.345,433.166,147.352,433.803z"/>
			<path style="fill:#FF9412;" d="M162.212,429.591c0,0,4.845-1.79,6.738-2.811c-1.272,0.675-2.529,1.633-2.686,2.811
				C166.264,429.591,166.217,428.288,162.212,429.591z"/>
			<path style="fill:#FF9412;" d="M164.54,425.854c1.481-0.456,3.342-1.091,4.598-1.744c-2.167,0.927-2.796-0.157-2.874-0.534
				c-0.772,0.534-1.496,1.051-2.113,1.497C163.745,425.367,164.062,426.001,164.54,425.854z"/>
			<path style="fill:#FF9412;" d="M183.321,418.424l5.984-4.869c0,0-1.916,1.743-1.963,2.623
				C187.122,416.429,183.321,418.424,183.321,418.424z"/>
			<path style="fill:#FF9412;" d="M183.337,416.995c0,0,4.366-2.953,5.544-4.052c-1.461,1.084-1.995,0.974-2.372,0.817
				C184.248,416.052,183.337,416.995,183.337,416.995z"/>
			<path style="fill:#FF9412;" d="M174.824,423.953c0,0,4.116-2.398,5.268-3.194c-0.419,0.314-1.111,1.204-1.153,1.791
				L174.824,423.953z"/>
			<path style="fill:#FF9412;" d="M147.171,429.848c0,0,4.481-0.649,6.094-1.141c-1.288,0.178-1.916-0.136-1.979-0.597
				C149.893,429.094,147.171,429.848,147.171,429.848z"/>
			<path style="fill:#FF9412;" d="M142.429,430.507c1.172-0.139,2.554-0.31,3.244-0.418c-0.513,0-1.026-0.23-1.141-0.712
				c-0.64,0.392-1.486,0.698-2.244,0.92C142.335,430.366,142.383,430.436,142.429,430.507z"/>
			<path style="fill:#FF9412;" d="M121.401,431.659c0,0,9.728,0.189,17.329-0.796c0,0-2.251,0.084-2.586-0.859
				c-1.571,0.565-2.89,1.298-5.968,1.298c0,0-1.801,0.272-1.906-1.445C125.694,430.863,121.401,431.659,121.401,431.659z"/>
			<path style="fill:#FF9412;" d="M155.175,428.35c0,0,3.974-0.879,5.466-1.414c-0.618,0.19-1.529,0.19-1.807-0.324
				C158.112,427.178,155.175,428.35,155.175,428.35z"/>
			<path style="fill:#FF9412;" d="M119.119,436.225c0,0,2.523-0.099,2.798,0.474c-0.032-0.322,2.968-0.463,2.968-0.463
				s2.584-0.275,2.654,0.228c0.079-0.283,4.688-0.73,4.688-0.73L119.119,436.225z"/>
			<g>
				<g>
					<path style="fill:#FF9412;" d="M197.101,414.468c-0.296-1.87-0.576-3.639-0.868-5.485c-0.18,0.148-0.326,0.263-0.466,0.384
						c-1.067,0.921-2.241,1.661-3.567,2.156c-0.449,0.168-0.854,0.161-1.277-0.106c-0.814-0.515-1.65-0.995-2.482-1.492
						c0.307-0.403,0.651-0.538,1.125-0.481c0.653,0.078,1.315,0.093,1.973,0.098c0.2,0.001,0.445-0.07,0.594-0.197
						c2.303-1.951,4.595-3.915,6.885-5.881c0.63-0.541,1.358-0.807,2.18-0.789c0.715,0.016,1.015,0.47,0.71,1.118
						c-0.158,0.335-0.411,0.648-0.686,0.9c-0.67,0.615-1.374,1.192-2.072,1.775c-0.193,0.161-0.292,0.328-0.313,0.594
						c-0.151,1.944-0.334,3.885-0.48,5.829c-0.033,0.432-0.176,0.75-0.534,0.991C197.596,414.034,197.396,414.225,197.101,414.468z"
						/>
					<path style="fill:#FF9412;" d="M190.773,406.308c0.534-0.462,0.909-1.057,1.768-0.926c0.867,0.133,1.753,0.137,2.631,0.2
						c0.073,0.005,0.146,0.02,0.292,0.04c-0.654,0.55-1.251,1.057-1.856,1.555c-0.058,0.048-0.172,0.076-0.242,0.054
						c-0.804-0.251-1.605-0.512-2.405-0.776C190.906,406.436,190.863,406.379,190.773,406.308z"/>
				</g>
			</g>
		</g>
		<text transform="matrix(1 0 0 1 110.8035 444.72)" style="fill:#FFFFFF; font-family:'Poppins-Regular'; font-size:5.9325px;">it&apos;s time to travel the world</text>
	</g>
	<g>
		<g>
			<defs>
				
					<filter id="Adobe_OpacityMaskFilter_00000049195363717778410170000009097368032608187037_" filterUnits="userSpaceOnUse" x="258.765" y="397.41" width="216.574" height="55.938">
					<feFlood  style="flood-color:white;flood-opacity:1" result="back"/>
					<feBlend  in="SourceGraphic" in2="back" mode="normal"/>
				</filter>
			</defs>
			
				<mask maskUnits="userSpaceOnUse" x="258.765" y="397.41" width="216.574" height="55.938" id="SVGID_00000001662738659995515600000013020999959345880730_">
				<g style="filter:url(#Adobe_OpacityMaskFilter_00000049195363717778410170000009097368032608187037_);">
					<path d="M358.089,434.92c0,0,67.911,6.977,98.193-28.204c-13.657,19-45.769,36.318-98.416,33.943"/>
					<path d="M418.077,427.479c0,0,0.297,1.763,2.394,1.262c-1.447,0.946-3.711,1.763-3.711,1.763L418.077,427.479z"/>
					<path d="M392.397,432.433c0,0-0.111,2.023,2.357,1.689c2.468-0.334-1.893,1.818-1.893,1.818S390.968,434.994,392.397,432.433z"
						/>
				</g>
			</mask>
			<g style="mask:url(#SVGID_00000001662738659995515600000013020999959345880730_);">
				<text transform="matrix(1 0 0 1 258.7653 434.3107)"><tspan x="0" y="0" style="fill:#FFFFFF; font-family:'BebasNeue-Bold'; font-size:31.8131px;">travel</tspan><tspan x="75.014" y="8.016" style="fill:#A0A0A0; font-family:'BebasNeue-Bold'; font-size:44.0867px;">WORLD</tspan></text>
			</g>
			<circle style="fill:#FFFFFF;" cx="291.464" cy="438.581" r="2.969"/>
			<polygon style="fill:#FFFFFF;" points="356.493,436.546 355.547,435.6 353.512,437.635 351.477,435.6 350.531,436.546 
				352.566,438.581 350.531,440.616 351.477,441.562 353.512,439.528 355.547,441.562 356.493,440.616 354.458,438.581 			"/>
			<g>
				<g>
					
						<line style="fill:none;stroke:#FFFFFF;stroke-width:0.668;stroke-miterlimit:10;" x1="296.313" y1="438.581" x2="297.983" y2="438.581"/>
					
						<line style="fill:none;stroke:#FFFFFF;stroke-width:0.668;stroke-miterlimit:10;stroke-dasharray:3.2805,3.2805;" x1="301.264" y1="438.581" x2="345.551" y2="438.581"/>
					
						<line style="fill:none;stroke:#FFFFFF;stroke-width:0.668;stroke-miterlimit:10;" x1="347.191" y1="438.581" x2="348.861" y2="438.581"/>
				</g>
			</g>
			<g>
				<g>
					<path style="fill:#A0A0A0;" d="M385.637,441.018c6.222-0.643,8.022-2.61,13.496-2.647c-2.301,0.705-3.117,1.732-3.117,1.732
						C393.65,442.376,387.87,441.989,385.637,441.018z"/>
					<path style="fill:#A0A0A0;" d="M400.596,438.021c0,0,13.009-3.374,16.473-4.957c-1.633,0.841-2.165,2.387-2.165,2.387
						s-1.419-1.039-7.181,0.835c-2,0.651-2.477,2.106-2.477,2.106S405.314,437.269,400.596,438.021z"/>
					<path style="fill:#A0A0A0;" d="M418.151,433.046c0,0,5.724-2.115,7.96-3.321c-1.503,0.798-2.987,1.93-3.173,3.321
						C422.939,433.046,422.883,431.506,418.151,433.046z"/>
					<path style="fill:#A0A0A0;" d="M420.902,428.63c1.75-0.538,3.948-1.289,5.432-2.06c-2.561,1.095-3.303-0.185-3.396-0.631
						c-0.912,0.631-1.767,1.241-2.497,1.769C419.963,428.055,420.337,428.804,420.902,428.63z"/>
					<path style="fill:#A0A0A0;" d="M443.089,419.853l7.069-5.752c0,0-2.264,2.06-2.319,3.099
						C447.58,417.496,443.089,419.853,443.089,419.853z"/>
					<path style="fill:#A0A0A0;" d="M443.108,418.164c0,0,5.158-3.488,6.55-4.787c-1.726,1.28-2.357,1.15-2.802,0.965
						C444.184,417.051,443.108,418.164,443.108,418.164z"/>
					<path style="fill:#A0A0A0;" d="M433.051,426.384c0,0,4.862-2.833,6.223-3.773c-0.495,0.371-1.312,1.423-1.362,2.115
						L433.051,426.384z"/>
					<path style="fill:#A0A0A0;" d="M400.382,433.349c0,0,5.294-0.767,7.199-1.348c-1.522,0.21-2.264-0.161-2.338-0.705
						C403.598,432.458,400.382,433.349,400.382,433.349z"/>
					<path style="fill:#A0A0A0;" d="M394.78,434.127c1.384-0.164,3.017-0.366,3.833-0.494c-0.606,0-1.212-0.272-1.348-0.841
						c-0.756,0.463-1.755,0.825-2.65,1.087C394.67,433.961,394.726,434.044,394.78,434.127z"/>
					<path style="fill:#A0A0A0;" d="M369.939,435.489c0,0,11.492,0.223,20.472-0.94c0,0-2.659,0.099-3.055-1.014
						c-1.855,0.668-3.414,1.534-7.051,1.534c0,0-2.128,0.322-2.251-1.707C375.011,434.549,369.939,435.489,369.939,435.489z"/>
					<path style="fill:#A0A0A0;" d="M409.839,431.58c0,0,4.695-1.039,6.457-1.67c-0.73,0.225-1.806,0.225-2.134-0.383
						C413.308,430.195,409.839,431.58,409.839,431.58z"/>
					<path style="fill:#A0A0A0;" d="M367.243,440.882c0,0,2.981-0.117,3.306,0.56c-0.037-0.38,3.507-0.547,3.507-0.547
						s3.052-0.325,3.136,0.269c0.093-0.334,5.539-0.863,5.539-0.863L367.243,440.882z"/>
				</g>
			</g>
			<g>
				<g>
					<path style="fill:#FFFFFF;" d="M459.368,415.179c-0.349-2.209-0.68-4.299-1.025-6.479c-0.213,0.175-0.385,0.311-0.551,0.454
						c-1.26,1.088-2.648,1.962-4.214,2.547c-0.531,0.198-1.009,0.19-1.509-0.126c-0.961-0.608-1.949-1.175-2.931-1.763
						c0.362-0.476,0.769-0.635,1.329-0.568c0.771,0.092,1.553,0.11,2.331,0.115c0.236,0.001,0.525-0.083,0.702-0.232
						c2.72-2.305,5.428-4.625,8.134-6.947c0.744-0.639,1.605-0.954,2.575-0.932c0.845,0.019,1.199,0.555,0.838,1.32
						c-0.187,0.396-0.486,0.765-0.811,1.063c-0.791,0.726-1.623,1.409-2.448,2.097c-0.228,0.19-0.345,0.388-0.369,0.702
						c-0.178,2.296-0.395,4.589-0.568,6.886c-0.039,0.511-0.208,0.886-0.631,1.171C459.953,414.667,459.717,414.893,459.368,415.179
						z"/>
					<path style="fill:#FFFFFF;" d="M451.892,405.539c0.631-0.545,1.074-1.249,2.089-1.094c1.024,0.157,2.071,0.162,3.108,0.236
						c0.087,0.006,0.172,0.023,0.345,0.047c-0.773,0.65-1.478,1.249-2.192,1.837c-0.069,0.056-0.203,0.089-0.285,0.064
						c-0.95-0.297-1.896-0.605-2.841-0.916C452.049,405.691,451.998,405.624,451.892,405.539z"/>
				</g>
			</g>
		</g>
	</g>
</g>
</svg>
