<?xml version="1.0" encoding="utf-8"?>
<!-- Generator: Adobe Illustrator 27.5.0, SVG Export Plug-In . SVG Version: 6.00 Build 0)  -->
<svg version="1.1" xmlns="http://www.w3.org/2000/svg" xmlns:xlink="http://www.w3.org/1999/xlink" x="0px" y="0px"
	 viewBox="0 0 500 500" style="enable-background:new 0 0 200 200;" xml:space="preserve">
<g id="BACKGROUND">
	<rect x="0.001" y="0" style="fill:#FFFFFF;" width="499.999" height="499.999"/>
</g>
<g id="OBJECTS">
	<g>
		<g>
			<text transform="matrix(1 0 0 1 81.968 325.9326)" style="fill:#0056BE; font-family:'Montserrat-Bold'; font-size:55.576px;">TRAVELING</text>
			
				<text transform="matrix(1 0 0 1 149.0403 350.7891)" style="fill:#38B3F2; font-family:'Montserrat-Regular'; font-size:16.4685px; letter-spacing:1;">TAGLINE GOES HERE</text>
		</g>
		<g>
			<g>
				<circle style="fill:#94D2F2;" cx="257.689" cy="196.239" r="49.867"/>
				<path style="fill:#94D2F2;" d="M213.022,218.411c8.35,12.774,11.652,73.054-84.692,45.611
					c104.663,36.272,175.192-11.801,177.621-68.386L213.022,218.411z"/>
				<g>
					<g>
						<g>
							<path style="fill:#FFFFFF;" d="M248.88,174.245c0,3.648-2.957,6.604-6.605,6.604c-3.648,0-6.605-2.957-6.605-6.604
								s2.957-6.605,6.605-6.605C245.923,167.641,248.88,170.598,248.88,174.245z"/>
							<rect x="207.405" y="167.641" style="fill:#FFFFFF;" width="34.87" height="13.209"/>
						</g>
						<g>
							<path style="fill:#FFFFFF;" d="M237.883,161.566c0,3.648-2.957,6.604-6.605,6.604c-3.648,0-6.605-2.957-6.605-6.604
								c0-3.648,2.957-6.605,6.605-6.605C234.926,154.962,237.883,157.919,237.883,161.566z"/>
							<rect x="196.409" y="154.962" style="fill:#FFFFFF;" width="34.87" height="13.209"/>
						</g>
						<g>
							<circle style="fill:#FFFFFF;" cx="221.372" cy="181.692" r="6.605"/>
							<rect x="186.502" y="175.087" style="fill:#FFFFFF;" width="34.87" height="13.209"/>
						</g>
					</g>
					<g>
						<g>
							<circle style="fill:#FFFFFF;" cx="275.09" cy="218.411" r="6.605"/>
							
								<rect x="275.09" y="211.806" transform="matrix(-1 -1.224647e-16 1.224647e-16 -1 585.051 436.821)" style="fill:#FFFFFF;" width="34.87" height="13.209"/>
						</g>
						<g>
							<circle style="fill:#FFFFFF;" cx="286.087" cy="205.732" r="6.605"/>
							
								<rect x="286.087" y="199.127" transform="matrix(-1 -1.224647e-16 1.224647e-16 -1 607.0442 411.4632)" style="fill:#FFFFFF;" width="34.87" height="13.209"/>
						</g>
						<g>
							<path style="fill:#FFFFFF;" d="M289.389,225.857c0,3.648,2.957,6.605,6.605,6.605c3.648,0,6.604-2.957,6.604-6.605
								s-2.957-6.605-6.604-6.605C292.346,219.252,289.389,222.209,289.389,225.857z"/>
							
								<rect x="295.994" y="219.252" transform="matrix(-1 -1.224647e-16 1.224647e-16 -1 626.858 451.7139)" style="fill:#FFFFFF;" width="34.87" height="13.209"/>
						</g>
					</g>
				</g>
			</g>
			<g>
				<g>
					<g>
						<polygon style="fill:#0056BE;" points="262.547,222.022 339.054,214.737 348.141,205.101 266.329,203.958 						"/>
						<polygon style="fill:#0056BE;" points="390.448,207.169 266.329,207.169 266.329,193.767 390.448,203.46 						"/>
						<polygon style="fill:#0056BE;" points="243.727,203.958 243.473,192.64 107.942,202.285 107.942,205.101 						"/>
						<polygon style="fill:#FFFFFF;stroke:#0056BE;stroke-width:1.4942;stroke-miterlimit:10;" points="390.448,204.914 
							266.329,204.914 266.329,191.512 390.448,201.206 						"/>
						<polygon style="fill:#FFFFFF;stroke:#0056BE;stroke-width:1.4942;stroke-miterlimit:10;" points="243.727,201.704 
							243.473,190.386 107.942,200.03 107.942,202.846 						"/>
						<polygon style="fill:#FFFFFF;stroke:#0056BE;stroke-width:1.4942;stroke-miterlimit:10;" points="243.727,201.704 
							243.473,190.386 107.942,200.03 107.942,202.846 						"/>
						<polygon style="fill:#0056BE;" points="390.448,207.169 266.329,207.169 266.329,193.767 390.448,203.46 						"/>
						<polygon style="fill:#0056BE;" points="392.057,189.446 390.7,189.446 389.343,207.169 392.057,207.169 						"/>
					</g>
				</g>
				<g>
					<g>
						<polygon style="fill:#0056BE;" points="107.1,187.378 108.457,187.378 109.815,205.101 107.1,205.101 						"/>
						<polygon style="fill:#0056BE;" points="243.727,203.958 243.473,192.64 107.942,202.285 107.942,205.101 						"/>
					</g>
					<polygon style="fill:#0056BE;" points="238.981,222.022 170.553,214.737 160.387,203.958 243.277,203.958 					"/>
				</g>
				<polygon style="fill:#FFFFFF;stroke:#0056BE;stroke-width:1.4942;stroke-miterlimit:10;" points="237.657,230.216 
					180.499,238.108 180.499,241.325 294.815,241.325 294.815,238.108 				"/>
				<polygon style="fill:#0056BE;" points="237.657,233.433 180.499,241.325 294.815,241.325 				"/>
				<g>
					<path style="fill:#FFFFFF;" d="M227.061,206.134c-2.251,6.265-8.18,9.87-13.241,8.051c-5.061-1.819-7.339-8.372-5.088-14.637
						c2.251-6.265,8.18-9.87,13.241-8.051C227.035,193.315,229.313,199.869,227.061,206.134z"/>
					<circle style="fill:#0056BE;" cx="219.012" cy="199.354" r="7.815"/>
				</g>
				<g>
					<path style="fill:#FFFFFF;stroke:#0056BE;stroke-width:1.4942;stroke-miterlimit:10;" d="M283.051,160.012
						c6.644-26.537-23.582-27.159-29.553-4.83c-5.971,22.329-19.94,74.575-19.94,74.575c-0.138,0.468-0.255,0.946-0.344,1.437
						c-1.339,7.397,3.546,14.474,10.911,15.807c7.364,1.333,14.42-3.583,15.759-10.98c0.025-0.139,0.033-0.278,0.054-0.417
						l0.051,0.011C259.988,235.615,282.508,162.18,283.051,160.012z"/>
					<g>
						
							<path style="fill:none;stroke:#0056BE;stroke-width:1.4942;stroke-linecap:round;stroke-linejoin:round;stroke-miterlimit:10;" d="
							M257.372,152.331c6.22-11.216,19.632-13.413,25.448-5.873c-4.519-10.971-20.865-9.303-27.497,3.936
							C255.404,150.486,257.239,152.572,257.372,152.331z"/>
					</g>
					<path style="fill:#0056BE;" d="M283.051,160.012c-2.544-1.965-5.724-3.146-9.188-3.146c-6.963,0-12.805,4.732-14.529,11.15
						l-0.014-0.005l-19.94,74.575c-0.138,0.468-0.255,0.946-0.344,1.437c-0.051,0.281-0.076,0.561-0.109,0.841
						c1.52,1.038,3.271,1.787,5.198,2.136c7.364,1.333,14.42-3.583,15.759-10.98c0.025-0.139,0.033-0.278,0.054-0.417l0.051,0.011
						C259.988,235.615,282.934,161.907,283.051,160.012z"/>
				</g>
				<g>
					<path style="fill:#FFFFFF;" d="M310.712,206.201c-2.238,6.228-8.155,9.803-13.217,7.984c-5.061-1.819-7.35-8.342-5.112-14.571
						c2.238-6.228,8.155-9.803,13.217-7.984C310.662,193.449,312.95,199.973,310.712,206.201z"/>
					<circle style="fill:#0056BE;" cx="302.687" cy="199.354" r="7.815"/>
				</g>
			</g>
		</g>
	</g>
</g>
</svg>
